<?xml version="1.0" encoding="utf-8"?>
<svg version="1.0" width="1104.000000pt" height="2487.000000pt" viewBox="0 0 607.209 1359.316" preserveAspectRatio="xMidYMid meet" xmlns="http://www.w3.org/2000/svg">
  <defs/>
  <g transform="translate(0.000000,2487.000000) scale(0.100000,-0.100000)" fill="#000000" stroke="none">
    <path d="M2830 24855 c0 -8 -16 -19 -37 -25 -125 -35 -223 -189 -223 -350 0&#10;-75 23 -167 49 -193 6 -6 11 -16 11 -23 0 -23 99 -113 153 -138 64 -31 145&#10;-48 190 -40 150 27 253 116 297 254 45 140 8 294 -97 406 -35 37 -106 84 -128&#10;84 -8 0 -24 9 -35 20 -17 17 -33 20 -100 20 -64 0 -80 -3 -80 -15z m166 -102&#10;c119 -40 182 -106 219 -231 17 -60 18 -65 2 -116 -18 -57 -56 -103 -92 -112&#10;-36 -9 -93 28 -190 123 -102 100 -173 185 -181 219 -9 37 25 84 81 110 59 28&#10;94 30 161 7z"/>
    <path d="M2100 24163 c0 -5 5 -14 10 -19 14 -14 52 -83 86 -154 15 -30 33 -67&#10;40 -82 8 -14 14 -34 14 -45 0 -10 7 -27 15 -37 8 -11 15 -33 15 -49 0 -15 5&#10;-38 12 -50 11 -21 32 -133 45 -244 8 -76 -10 -78 -99 -12 -79 59 -77 58 -174&#10;112 -38 20 -75 37 -84 37 -8 0 -24 7 -34 15 -11 8 -30 15 -43 15 -13 0 -34 6&#10;-46 14 -26 16 -139 30 -260 30 -85 1 -88 0 -112 -29 -34 -42 -31 -70 18 -155&#10;105 -188 174 -340 272 -610 60 -166 116 -425 149 -695 18 -139 30 -475 19&#10;-491 -5 -6 -48 -16 -97 -23 -103 -14 -151 -31 -226 -80 -76 -50 -125 -103&#10;-156 -169 -23 -49 -27 -70 -28 -157 -1 -150 28 -223 124 -307 94 -82 213 -127&#10;343 -129 40 -1 85 -4 101 -8 34 -7 40 -24 55 -136 5 -38 14 -101 20 -140 39&#10;-259 59 -472 76 -805 36 -716 -4 -1553 -110 -2290 -7 -52 -21 -149 -30 -215&#10;-9 -66 -21 -136 -25 -155 -5 -19 -12 -60 -15 -90 -4 -30 -13 -89 -21 -130 -8&#10;-41 -21 -111 -30 -155 -54 -286 -75 -389 -84 -420 -5 -16 -14 -57 -20 -90 -10&#10;-57 -15 -83 -55 -250 -9 -38 -23 -95 -30 -125 -7 -30 -18 -75 -24 -100 -7 -25&#10;-19 -72 -28 -105 -30 -120 -62 -242 -90 -340 -46 -160 -165 -504 -208 -600 -7&#10;-16 -21 -48 -30 -70 -45 -105 -146 -302 -210 -410 -154 -256 -247 -370 -568&#10;-695 -219 -221 -246 -252 -279 -320 -48 -98 -66 -200 -48 -267 13 -47 58 -115&#10;92 -141 9 -7 23 -18 30 -26 7 -7 44 -30 81 -52 37 -21 67 -43 67 -49 0 -9 -46&#10;-43 -214 -159 -169 -118 -264 -225 -291 -331 -17 -64 -20 -211 -5 -220 6 -3&#10;10 -14 10 -23 1 -49 127 -171 232 -224 93 -46 166 -78 182 -78 8 0 17 -4 21&#10;-9 3 -5 20 -12 38 -16 17 -4 50 -12 72 -20 86 -28 255 -67 395 -90 52 -8 120&#10;-20 150 -25 30 -5 80 -12 110 -15 30 -3 109 -12 175 -20 170 -20 476 -44 640&#10;-50 77 -2 262 -10 410 -16 587 -25 1590 5 2100 62 50 5 135 14 190 20 55 5&#10;113 14 129 19 16 6 44 10 62 10 31 0 79 9 259 46 446 93 720 242 785 428 24&#10;67 25 112 5 191 -23 91 -53 144 -119 210 -75 74 -89 85 -212 171 -173 121&#10;-183 129 -184 139 0 6 30 28 67 49 71 41 72 42 140 108 44 43 73 108 73 164 0&#10;64 -32 170 -72 241 -32 57 -83 114 -246 275 -239 237 -307 312 -423 468 -156&#10;210 -288 450 -418 760 -45 109 -125 332 -151 425 -5 17 -18 62 -30 100 -25 83&#10;-48 167 -59 215 -5 19 -25 98 -46 175 -36 139 -58 229 -76 314 -5 25 -13 59&#10;-19 75 -9 29 -14 56 -55 251 -9 44 -23 109 -30 145 -8 36 -21 103 -30 150 -9&#10;47 -23 114 -30 150 -7 36 -20 108 -29 160 -9 52 -21 122 -27 155 -17 101 -39&#10;246 -48 320 -5 39 -14 102 -19 140 -20 131 -67 556 -82 745 -34 411 -47 965&#10;-31 1380 6 173 16 351 21 395 6 44 15 132 20 195 12 151 41 363 73 545 14 81&#10;16 82 147 84 144 2 259 50 360 150 85 84 104 134 105 271 0 111 -15 166 -63&#10;230 -90 121 -258 198 -432 200 -26 0 -51 5 -58 12 -28 28 -2 457 42 698 29&#10;157 84 363 126 470 12 30 25 66 30 80 36 110 169 380 241 488 16 24 29 46 29&#10;49 0 3 14 22 30 43 17 21 30 41 30 45 0 4 14 25 32 47 56 72 38 176 -36 202&#10;-27 10 -223 -6 -281 -24 -16 -5 -57 -16 -90 -25 -33 -10 -73 -23 -88 -31 -16&#10;-8 -36 -14 -45 -14 -9 0 -26 -7 -36 -15 -11 -8 -27 -15 -36 -15 -10 0 -39 -12&#10;-66 -26 -116 -61 -130 -69 -146 -82 -9 -7 -27 -12 -40 -10 -20 3 -23 8 -20 42&#10;2 22 10 52 18 67 8 16 14 43 14 62 0 18 7 42 15 53 8 10 15 35 15 54 0 19 7&#10;46 15 60 8 14 15 41 15 60 0 19 7 46 15 60 8 14 14 42 15 63 l0 38 -42 -5&#10;c-24 -3 -72 -8 -108 -11 -65 -7 -176 -38 -195 -56 -5 -5 -19 -9 -31 -9 -12 0&#10;-27 -7 -34 -15 -7 -8 -17 -15 -22 -15 -22 0 -128 -80 -205 -154 -81 -77 -129&#10;-139 -173 -224 -14 -27 -28 -42 -38 -40 -9 2 -34 30 -56 63 -79 118 -293 313&#10;-388 355 -13 6 -43 22 -67 35 -24 14 -51 25 -60 25 -9 0 -26 7 -38 15 -11 8&#10;-40 17 -64 21 -24 4 -51 10 -59 14 -25 12 -110 22 -110 13z m1924 -789 c18&#10;-17 21 -75 7 -120 -5 -16 -26 -83 -46 -149 -21 -66 -41 -128 -46 -137 -5 -10&#10;-13 -34 -18 -55 -6 -21 -18 -63 -27 -93 -46 -153 -80 -277 -94 -340 -4 -19&#10;-13 -57 -20 -85 -6 -27 -18 -77 -26 -110 -8 -33 -21 -81 -29 -106 -8 -26 -15&#10;-52 -15 -59 0 -7 -11 -28 -26 -47 -45 -60 -90 -42 -132 52 -77 172 -68 534 19&#10;750 40 99 57 137 81 178 15 26 28 50 28 53 0 11 119 160 151 190 93 86 159&#10;113 193 78z m216 -1906 c41 -28 54 -70 47 -153 -6 -77 -35 -134 -101 -201 -63&#10;-62 -111 -88 -193 -104 -80 -16 -151 -1 -193 42 -64 64 -27 126 181 307 46 40&#10;91 76 99 79 8 3 22 11 30 17 15 13 66 33 86 34 6 1 26 -9 44 -21z m-94 -6860&#10;c22 -24 75 -98 119 -166 178 -273 297 -423 495 -622 154 -155 251 -261 285&#10;-311 16 -24 32 -46 35 -49 4 -3 20 -27 36 -55 46 -75 91 -199 109 -296 14 -77&#10;14 -94 1 -158 -16 -76 -41 -120 -68 -121 -18 0 -68 58 -68 79 0 7 -6 25 -14&#10;39 -7 15 -24 47 -36 72 -69 136 -151 229 -475 540 -120 116 -269 284 -285 323&#10;-3 7 -17 30 -31 52 -80 123 -155 299 -186 435 -24 106 -28 212 -9 249 22 42&#10;45 39 92 -11z m1381 -2190 c51 -29 90 -66 109 -103 81 -157 50 -320 -85 -456&#10;-61 -60 -86 -76 -194 -123 -53 -23 -208 -22 -243 1 -63 41 -49 99 47 189 134&#10;124 178 173 204 225 25 49 27 59 21 129 -10 111 -10 119 10 141 23 26 83 25&#10;131 -3z"/>
  </g>
</svg>